# xmcd CD database file
#
# Track frame offsets:
#	150
#	17109
#	34175
#	46838
#	60097
#	77701
#	93409
#	111400
#	137633
#	159870
#	172487
#	191122
#	216273
#
# Disc length: 3075 seconds
#
# Revision: 0
# Processed by: cddbd v1.5.1PL0 Copyright (c) Steve Scherf et al.
# Submitted via: CDex 1.51
#
DISCID=af0c010d
DTITLE=Maxell and Santinelli - Blue Moon
DYEAR=2004
DGENRE=Jazz
TTITLE0=Moonlight in Vermont
TTITLE1=The Shadow of Your Smile
TTITLE2=When a Sunny Gets Blue
TTITLE3=Take A Train
TTITLE4=Blue Moon
TTITLE5=Meditation
TTITLE6=Sophisticated Lady
TTITLE7=In A Sentimental Mood
TTITLE8=Autumn Leaves
TTITLE9=Smoke Gets in Your Eyes
TTITLE10=Here's That Rainy Day
TTITLE11='Round Midnight
TTITLE12=Angel Eyes
EXTD=YEAR: 2004
EXTT0=
EXTT1=
EXTT2=
EXTT3=
EXTT4=
EXTT5=
EXTT6=
EXTT7=
EXTT8=
EXTT9=
EXTT10=
EXTT11=
EXTT12=
PLAYORDER=
